<?xml version="1.0" encoding="UTF-8" standalone="no"?>
<!DOCTYPE svg PUBLIC "-//W3C//DTD SVG 1.1//EN"
 "http://www.w3.org/Graphics/SVG/1.1/DTD/svg11.dtd">
<!-- Generated by graphviz version 2.36.0 (20140111.2315)
 -->
<!-- Title: graphname Pages: 1 -->
<svg width="2042pt" height="416pt"
 viewBox="0.00 0.00 2042.00 416.00" xmlns="http://www.w3.org/2000/svg" xmlns:xlink="http://www.w3.org/1999/xlink">
<g id="graph0" class="graph" transform="scale(1 1) rotate(0) translate(4 412)">
<title>graphname</title>
<polygon fill="white" stroke="none" points="-4,4 -4,-412 2038,-412 2038,4 -4,4"/>
<!-- a -->
<g id="node1" class="node"><title>a</title>
<ellipse fill="none" stroke="black" cx="60" cy="-299" rx="59.5901" ry="18"/>
<text text-anchor="middle" x="60" y="-295.3" font-family="Times,serif" font-size="14.00">No derivation</text>
</g>
<!-- c -->
<g id="node3" class="node"><title>c</title>
<ellipse fill="none" stroke="black" cx="183" cy="-253" rx="27" ry="18"/>
<text text-anchor="middle" x="183" y="-249.3" font-family="Times,serif" font-size="14.00">Any</text>
</g>
<!-- a&#45;&gt;c -->
<g id="edge1" class="edge"><title>a&#45;&gt;c</title>
<path fill="none" stroke="black" d="M97.9615,-284.949C114.422,-278.691 133.637,-271.386 149.535,-265.342"/>
<polygon fill="black" stroke="black" points="150.848,-268.587 158.952,-261.762 148.36,-262.044 150.848,-268.587"/>
</g>
<!-- b -->
<g id="node2" class="node"><title>b</title>
<ellipse fill="none" stroke="black" cx="1904" cy="-367" rx="129.177" ry="18"/>
<text text-anchor="middle" x="1904" y="-363.3" font-family="Times,serif" font-size="14.00">No Distribution and modification</text>
</g>
<!-- b&#45;&gt;c -->
<g id="edge9" class="edge"><title>b&#45;&gt;c</title>
<path fill="none" stroke="black" d="M1794.95,-357.246C1716.28,-350.977 1607.12,-344 1511,-344 404,-344 404,-344 404,-344 329.068,-344 249.936,-298.364 210.13,-271.728"/>
<polygon fill="black" stroke="black" points="212.025,-268.784 201.792,-266.038 208.079,-274.566 212.025,-268.784"/>
</g>
<!-- d -->
<g id="node4" class="node"><title>d</title>
<ellipse fill="none" stroke="black" cx="275" cy="-161" rx="28.6953" ry="18"/>
<text text-anchor="middle" x="275" y="-157.3" font-family="Times,serif" font-size="14.00">Read</text>
</g>
<!-- c&#45;&gt;d -->
<g id="edge2" class="edge"><title>c&#45;&gt;d</title>
<path fill="none" stroke="black" d="M198.46,-238.219C212.938,-223.419 235.402,-200.455 252.074,-183.413"/>
<polygon fill="black" stroke="black" points="254.786,-185.646 259.277,-176.05 249.782,-180.751 254.786,-185.646"/>
</g>
<!-- g -->
<g id="node7" class="node"><title>g</title>
<ellipse fill="none" stroke="black" cx="1021" cy="-92" rx="58.4896" ry="18"/>
<text text-anchor="middle" x="1021" y="-88.3" font-family="Times,serif" font-size="14.00">Reproduction</text>
</g>
<!-- c&#45;&gt;g -->
<g id="edge26" class="edge"><title>c&#45;&gt;g</title>
<path fill="none" stroke="black" d="M189.627,-235.21C209.066,-177.621 279.145,-0 404,-0 404,-0 404,-0 711,-0 811.476,-0 922.973,-45.2345 980.634,-72.2668"/>
<polygon fill="black" stroke="black" points="979.218,-75.469 989.752,-76.6013 982.224,-69.1469 979.218,-75.469"/>
</g>
<!-- t -->
<g id="node20" class="node"><title>t</title>
<ellipse fill="none" stroke="black" cx="405" cy="-291" rx="64.189" ry="18"/>
<text text-anchor="middle" x="405" y="-287.3" font-family="Times,serif" font-size="14.00">Include licence</text>
</g>
<!-- c&#45;&gt;t -->
<g id="edge10" class="edge"><title>c&#45;&gt;t</title>
<path fill="none" stroke="black" d="M209.237,-257.359C240.859,-262.821 296.194,-272.379 339.821,-279.914"/>
<polygon fill="black" stroke="black" points="339.336,-283.382 349.786,-281.636 340.527,-276.485 339.336,-283.382"/>
</g>
<!-- j -->
<g id="node10" class="node"><title>j</title>
<ellipse fill="none" stroke="black" cx="405" cy="-149" rx="46.5926" ry="18"/>
<text text-anchor="middle" x="405" y="-145.3" font-family="Times,serif" font-size="14.00">Grant Use</text>
</g>
<!-- d&#45;&gt;j -->
<g id="edge3" class="edge"><title>d&#45;&gt;j</title>
<path fill="none" stroke="black" d="M303.459,-158.426C316.837,-157.172 333.417,-155.617 349.23,-154.135"/>
<polygon fill="black" stroke="black" points="349.839,-157.593 359.469,-153.175 349.186,-150.624 349.839,-157.593"/>
</g>
<!-- e -->
<g id="node5" class="node"><title>e</title>
<ellipse fill="none" stroke="black" cx="710" cy="-195" rx="53.0913" ry="18"/>
<text text-anchor="middle" x="710" y="-191.3" font-family="Times,serif" font-size="14.00">Distribution</text>
</g>
<!-- e&#45;&gt;c -->
<g id="edge25" class="edge"><title>e&#45;&gt;c</title>
<path fill="none" stroke="black" d="M663.38,-203.941C649.489,-206.464 634.152,-209.05 620,-211 472.448,-231.335 295.453,-245.14 220.444,-250.503"/>
<polygon fill="black" stroke="black" points="219.861,-247.035 210.133,-251.232 220.355,-254.018 219.861,-247.035"/>
</g>
<!-- r -->
<g id="node18" class="node"><title>r</title>
<ellipse fill="none" stroke="black" cx="863" cy="-222" rx="62.2891" ry="18"/>
<text text-anchor="middle" x="863" y="-218.3" font-family="Times,serif" font-size="14.00">Include source</text>
</g>
<!-- e&#45;&gt;r -->
<g id="edge31" class="edge"><title>e&#45;&gt;r</title>
<path fill="none" stroke="black" d="M757.537,-203.321C770.786,-205.69 785.437,-208.31 799.472,-210.819"/>
<polygon fill="black" stroke="black" points="799.093,-214.307 809.553,-212.622 800.326,-207.417 799.093,-214.307"/>
</g>
<!-- f -->
<g id="node6" class="node"><title>f</title>
<ellipse fill="none" stroke="black" cx="563" cy="-184" rx="57.3905" ry="18"/>
<text text-anchor="middle" x="563" y="-180.3" font-family="Times,serif" font-size="14.00">Modification</text>
</g>
<!-- f&#45;&gt;e -->
<g id="edge30" class="edge"><title>f&#45;&gt;e</title>
<path fill="none" stroke="black" d="M618.818,-188.159C628.242,-188.873 638.089,-189.621 647.67,-190.347"/>
<polygon fill="black" stroke="black" points="647.693,-193.859 657.929,-191.126 648.223,-186.879 647.693,-193.859"/>
</g>
<!-- h -->
<g id="node8" class="node"><title>h</title>
<ellipse fill="none" stroke="black" cx="1192" cy="-138" rx="36.2938" ry="18"/>
<text text-anchor="middle" x="1192" y="-134.3" font-family="Times,serif" font-size="14.00">Present</text>
</g>
<!-- g&#45;&gt;h -->
<g id="edge27" class="edge"><title>g&#45;&gt;h</title>
<path fill="none" stroke="black" d="M1065.52,-103.846C1091.51,-110.92 1124.32,-119.851 1149.87,-126.806"/>
<polygon fill="black" stroke="black" points="1149.06,-130.213 1159.63,-129.462 1150.9,-123.458 1149.06,-130.213"/>
</g>
<!-- k -->
<g id="node11" class="node"><title>k</title>
<ellipse fill="none" stroke="black" cx="1192" cy="-84" rx="76.0865" ry="18"/>
<text text-anchor="middle" x="1192" y="-80.3" font-family="Times,serif" font-size="14.00">Include attribution</text>
</g>
<!-- g&#45;&gt;k -->
<g id="edge22" class="edge"><title>g&#45;&gt;k</title>
<path fill="none" stroke="black" d="M1079.22,-89.2916C1088.22,-88.8655 1097.68,-88.4175 1107.13,-87.97"/>
<polygon fill="black" stroke="black" points="1107.54,-91.4547 1117.37,-87.4856 1107.21,-84.4625 1107.54,-91.4547"/>
</g>
<!-- h&#45;&gt;j -->
<g id="edge28" class="edge"><title>h&#45;&gt;j</title>
<path fill="none" stroke="black" d="M1155.19,-138C1095.04,-138 969.878,-138 864,-138 709,-138 709,-138 709,-138 622.542,-138 522.298,-142.528 461.548,-145.774"/>
<polygon fill="black" stroke="black" points="461.207,-142.287 451.411,-146.323 461.586,-149.277 461.207,-142.287"/>
</g>
<!-- i -->
<g id="node9" class="node"><title>i</title>
<ellipse fill="none" stroke="black" cx="863" cy="-92" rx="27" ry="18"/>
<text text-anchor="middle" x="863" y="-88.3" font-family="Times,serif" font-size="14.00">Sell</text>
</g>
<!-- i&#45;&gt;g -->
<g id="edge21" class="edge"><title>i&#45;&gt;g</title>
<path fill="none" stroke="black" d="M890.111,-92C907.185,-92 930.331,-92 952.355,-92"/>
<polygon fill="black" stroke="black" points="952.369,-95.5001 962.369,-92 952.369,-88.5001 952.369,-95.5001"/>
</g>
<!-- j&#45;&gt;f -->
<g id="edge29" class="edge"><title>j&#45;&gt;f</title>
<path fill="none" stroke="black" d="M445.769,-157.923C464.071,-162.029 486.104,-166.972 506.044,-171.446"/>
<polygon fill="black" stroke="black" points="505.419,-174.892 515.942,-173.667 506.951,-168.062 505.419,-174.892"/>
</g>
<!-- j&#45;&gt;i -->
<g id="edge20" class="edge"><title>j&#45;&gt;i</title>
<path fill="none" stroke="black" d="M442.753,-138.358C461.529,-133.293 484.825,-127.576 506,-124 621.923,-104.422 761.241,-96.2956 825.838,-93.3939"/>
<polygon fill="black" stroke="black" points="826.076,-96.887 835.915,-92.9568 825.773,-89.8935 826.076,-96.887"/>
</g>
<!-- m -->
<g id="node13" class="node"><title>m</title>
<ellipse fill="none" stroke="black" cx="710" cy="-260" rx="33.2948" ry="18"/>
<text text-anchor="middle" x="710" y="-256.3" font-family="Times,serif" font-size="14.00">Public</text>
</g>
<!-- j&#45;&gt;m -->
<g id="edge4" class="edge"><title>j&#45;&gt;m</title>
<path fill="none" stroke="black" d="M427.152,-164.907C446.684,-178.896 476.976,-198.868 506,-211 559.657,-233.428 625.772,-246.988 667.667,-253.987"/>
<polygon fill="black" stroke="black" points="667.343,-257.48 677.775,-255.627 668.464,-250.571 667.343,-257.48"/>
</g>
<!-- l -->
<g id="node12" class="node"><title>l</title>
<ellipse fill="none" stroke="black" cx="1374" cy="-166" rx="69.5877" ry="18"/>
<text text-anchor="middle" x="1374" y="-162.3" font-family="Times,serif" font-size="14.00">Commercial use</text>
</g>
<!-- k&#45;&gt;l -->
<g id="edge23" class="edge"><title>k&#45;&gt;l</title>
<path fill="none" stroke="black" d="M1237.02,-98.7094C1247.29,-102.455 1258.12,-106.657 1268,-111 1290.77,-121.006 1315.44,-133.823 1335.15,-144.566"/>
<polygon fill="black" stroke="black" points="1333.66,-147.742 1344.11,-149.495 1337.03,-141.609 1333.66,-147.742"/>
</g>
<!-- l&#45;&gt;e -->
<g id="edge24" class="edge"><title>l&#45;&gt;e</title>
<path fill="none" stroke="black" d="M1305.33,-168.964C1176.44,-174.611 897.471,-186.831 773.065,-192.281"/>
<polygon fill="black" stroke="black" points="772.783,-188.79 762.946,-192.724 773.09,-195.783 772.783,-188.79"/>
</g>
<!-- o -->
<g id="node15" class="node"><title>o</title>
<ellipse fill="none" stroke="black" cx="1510" cy="-239" rx="29.795" ry="18"/>
<text text-anchor="middle" x="1510" y="-235.3" font-family="Times,serif" font-size="14.00">None</text>
</g>
<!-- l&#45;&gt;o -->
<g id="edge16" class="edge"><title>l&#45;&gt;o</title>
<path fill="none" stroke="black" d="M1404.74,-182.201C1426.6,-194.109 1456.22,-210.244 1478.3,-222.275"/>
<polygon fill="black" stroke="black" points="1476.8,-225.444 1487.26,-227.155 1480.15,-219.297 1476.8,-225.444"/>
</g>
<!-- m&#45;&gt;o -->
<g id="edge5" class="edge"><title>m&#45;&gt;o</title>
<path fill="none" stroke="black" d="M743.469,-261.393C799.758,-263.686 919.112,-268 1020,-268 1020,-268 1020,-268 1193,-268 1304.87,-268 1332.85,-261.737 1444,-249 1452.72,-248 1462.07,-246.699 1470.88,-245.367"/>
<polygon fill="black" stroke="black" points="1471.57,-248.803 1480.91,-243.806 1470.49,-241.886 1471.57,-248.803"/>
</g>
<!-- n -->
<g id="node14" class="node"><title>n</title>
<ellipse fill="none" stroke="black" cx="1657" cy="-212" rx="50.0912" ry="18"/>
<text text-anchor="middle" x="1657" y="-208.3" font-family="Times,serif" font-size="14.00">Share alike</text>
</g>
<!-- q -->
<g id="node17" class="node"><title>q</title>
<ellipse fill="none" stroke="black" cx="1904" cy="-189" rx="48.1917" ry="18"/>
<text text-anchor="middle" x="1904" y="-185.3" font-family="Times,serif" font-size="14.00">Derivation</text>
</g>
<!-- n&#45;&gt;q -->
<g id="edge18" class="edge"><title>n&#45;&gt;q</title>
<path fill="none" stroke="black" d="M1705.53,-207.538C1746.11,-203.728 1804.53,-198.245 1847.29,-194.23"/>
<polygon fill="black" stroke="black" points="1847.63,-197.713 1857.26,-193.294 1846.98,-190.744 1847.63,-197.713"/>
</g>
<!-- o&#45;&gt;n -->
<g id="edge17" class="edge"><title>o&#45;&gt;n</title>
<path fill="none" stroke="black" d="M1538.96,-233.794C1556.86,-230.46 1580.68,-226.025 1602.16,-222.026"/>
<polygon fill="black" stroke="black" points="1602.96,-225.437 1612.15,-220.165 1601.68,-218.555 1602.96,-225.437"/>
</g>
<!-- p -->
<g id="node16" class="node"><title>p</title>
<ellipse fill="none" stroke="black" cx="1657" cy="-266" rx="80.6858" ry="18"/>
<text text-anchor="middle" x="1657" y="-262.3" font-family="Times,serif" font-size="14.00">No commercial use</text>
</g>
<!-- o&#45;&gt;p -->
<g id="edge13" class="edge"><title>o&#45;&gt;p</title>
<path fill="none" stroke="black" d="M1538.96,-244.206C1552.04,-246.642 1568.29,-249.667 1584.47,-252.68"/>
<polygon fill="black" stroke="black" points="1584.04,-256.16 1594.51,-254.55 1585.32,-249.278 1584.04,-256.16"/>
</g>
<!-- u -->
<g id="node21" class="node"><title>u</title>
<ellipse fill="none" stroke="black" cx="1657" cy="-390" rx="53.8905" ry="18"/>
<text text-anchor="middle" x="1657" y="-386.3" font-family="Times,serif" font-size="14.00">All reserved</text>
</g>
<!-- o&#45;&gt;u -->
<g id="edge6" class="edge"><title>o&#45;&gt;u</title>
<path fill="none" stroke="black" d="M1525.97,-254.591C1551.19,-280.849 1602.31,-334.089 1632.4,-365.419"/>
<polygon fill="black" stroke="black" points="1630.11,-368.094 1639.56,-372.883 1635.16,-363.246 1630.11,-368.094"/>
</g>
<!-- p&#45;&gt;q -->
<g id="edge14" class="edge"><title>p&#45;&gt;q</title>
<path fill="none" stroke="black" d="M1704.37,-251.426C1748,-237.714 1812.98,-217.293 1856.61,-203.579"/>
<polygon fill="black" stroke="black" points="1857.91,-206.84 1866.4,-200.503 1855.81,-200.162 1857.91,-206.84"/>
</g>
<!-- q&#45;&gt;j -->
<g id="edge19" class="edge"><title>q&#45;&gt;j</title>
<path fill="none" stroke="black" d="M1879.9,-173.126C1821.15,-134.357 1660.14,-38 1511,-38 709,-38 709,-38 709,-38 605.2,-38 492.934,-96.1441 438.829,-128.268"/>
<polygon fill="black" stroke="black" points="436.795,-125.407 430.036,-133.566 440.407,-131.403 436.795,-125.407"/>
</g>
<!-- q&#45;&gt;l -->
<g id="edge15" class="edge"><title>q&#45;&gt;l</title>
<path fill="none" stroke="black" d="M1855.89,-186.948C1764.86,-182.983 1563.99,-174.233 1452.82,-169.39"/>
<polygon fill="black" stroke="black" points="1452.82,-165.887 1442.68,-168.948 1452.51,-172.88 1452.82,-165.887"/>
</g>
<!-- r&#45;&gt;g -->
<g id="edge32" class="edge"><title>r&#45;&gt;g</title>
<path fill="none" stroke="black" d="M884.394,-205.005C911.839,-182.134 960.782,-141.349 991.756,-115.537"/>
<polygon fill="black" stroke="black" points="994.159,-118.09 999.601,-108.999 989.678,-112.712 994.159,-118.09"/>
</g>
<!-- s -->
<g id="node19" class="node"><title>s</title>
<ellipse fill="none" stroke="black" cx="1021" cy="-222" rx="41.6928" ry="18"/>
<text text-anchor="middle" x="1021" y="-218.3" font-family="Times,serif" font-size="14.00">Copyleft</text>
</g>
<!-- r&#45;&gt;s -->
<g id="edge33" class="edge"><title>r&#45;&gt;s</title>
<path fill="none" stroke="black" d="M925.655,-222C940.043,-222 955.207,-222 969.07,-222"/>
<polygon fill="black" stroke="black" points="969.382,-225.5 979.382,-222 969.382,-218.5 969.382,-225.5"/>
</g>
<!-- s&#45;&gt;o -->
<g id="edge12" class="edge"><title>s&#45;&gt;o</title>
<path fill="none" stroke="black" d="M1062.68,-223.42C1154.93,-226.64 1379,-234.462 1469.81,-237.632"/>
<polygon fill="black" stroke="black" points="1469.84,-241.135 1479.95,-237.986 1470.08,-234.139 1469.84,-241.135"/>
</g>
<!-- t&#45;&gt;s -->
<g id="edge11" class="edge"><title>t&#45;&gt;s</title>
<path fill="none" stroke="black" d="M468.359,-294.421C540.004,-297.399 660.955,-299.507 764,-287 837.415,-278.089 854.438,-267.658 926,-249 942.443,-244.713 960.395,-239.651 976.164,-235.076"/>
<polygon fill="black" stroke="black" points="977.556,-238.316 986.174,-232.153 975.593,-231.597 977.556,-238.316"/>
</g>
<!-- u&#45;&gt;a -->
<g id="edge7" class="edge"><title>u&#45;&gt;a</title>
<path fill="none" stroke="black" d="M1602.92,-388.794C1546.42,-387.617 1454.41,-386 1375,-386 274,-386 274,-386 274,-386 205.484,-386 133.159,-346.942 92.8894,-321.167"/>
<polygon fill="black" stroke="black" points="94.6046,-318.106 84.3181,-315.569 90.777,-323.967 94.6046,-318.106"/>
</g>
<!-- u&#45;&gt;b -->
<g id="edge8" class="edge"><title>u&#45;&gt;b</title>
<path fill="none" stroke="black" d="M1709.06,-385.206C1731.67,-383.084 1759.27,-380.493 1786.47,-377.94"/>
<polygon fill="black" stroke="black" points="1786.83,-381.421 1796.46,-377.001 1786.18,-374.452 1786.83,-381.421"/>
</g>
</g>
</svg>
